<svg xmlns="http://www.w3.org/2000/svg" viewBox="0 0 64 64" fill="none" role="img" aria-label="H.A.L.O.">
  <defs>
    <linearGradient id="haloRing" x1="8" y1="8" x2="56" y2="56" gradientUnits="userSpaceOnUse">
      <stop stop-color="#4ade80"/>
      <stop offset="1" stop-color="#16a34a"/>
    </linearGradient>
  </defs>
  <!-- Navy fill inside the halo only (transparent outside — no square corners on favicon/PWA) -->
  <circle cx="32" cy="32" r="21" fill="#090b0e"/>
  <circle cx="32" cy="32" r="27" stroke="url(#haloRing)" stroke-width="2.2" opacity="0.35"/>
  <circle cx="32" cy="32" r="21" stroke="url(#haloRing)" stroke-width="2.6"/>
  <circle cx="32" cy="11" r="2.2" fill="#4ade80"/>
  <g class="wave-lines" stroke="#4ade80" stroke-width="1.7" stroke-linecap="round" fill="none">
    <path d="M14.5 24.5c-3.2 3.4-3.8 8.2-2.2 12.2" opacity="0.55">
      <animate attributeName="opacity" values="0.25;0.85;0.25" dur="1.35s" repeatCount="indefinite"/>
    </path>
    <path d="M18.2 26.2c-2.1 2.4-2.5 5.8-1.4 8.6" opacity="0.8">
      <animate attributeName="opacity" values="0.35;1;0.35" dur="1.35s" begin="0.12s" repeatCount="indefinite"/>
    </path>
    <path d="M11.8 22.8c-4.2 4.4-5 10.4-2.8 15.4" opacity="0.4">
      <animate attributeName="opacity" values="0.15;0.7;0.15" dur="1.35s" begin="0.22s" repeatCount="indefinite"/>
    </path>
    <path d="M49.5 24.5c3.2 3.4 3.8 8.2 2.2 12.2" opacity="0.55">
      <animate attributeName="opacity" values="0.25;0.85;0.25" dur="1.35s" begin="0.08s" repeatCount="indefinite"/>
    </path>
    <path d="M45.8 26.2c2.1 2.4 2.5 5.8 1.4 8.6" opacity="0.8">
      <animate attributeName="opacity" values="0.35;1;0.35" dur="1.35s" begin="0.18s" repeatCount="indefinite"/>
    </path>
    <path d="M52.2 22.8c4.2 4.4 5 10.4 2.8 15.4" opacity="0.4">
      <animate attributeName="opacity" values="0.15;0.7;0.15" dur="1.35s" begin="0.28s" repeatCount="indefinite"/>
    </path>
  </g>
  <g>
    <path fill="#e8eaed" d="M24.8 33.2c-1 0-1.8.9-1.8 2.1v3.8c0 6.6 4.4 11.4 11.8 11.4 6.6 0 10.7-4.3 10.7-10.4V25.2c0-1.3-1-2.3-2.2-2.3-1.2 0-2.2 1-2.2 2.3v9.2h-1.4V21.4c0-1.3-1-2.4-2.3-2.4-1.2 0-2.2 1.1-2.2 2.4v13.2h-1.5V20.2c0-1.3-1-2.4-2.3-2.4s-2.3 1.1-2.3 2.4v15.2h-1.4v-7.6c0-1.2-1-2.1-2.2-2.1-1.1 0-2.1.9-2.1 2.1v6.2h-.6z"/>
    <animateTransform
      attributeName="transform"
      type="rotate"
      values="-24 34 44; 12 34 44; -24 34 44"
      dur="1.35s"
      repeatCount="indefinite"
      calcMode="spline"
      keySplines="0.4 0 0.2 1; 0.4 0 0.2 1"
    />
  </g>
</svg>
